# xmcd CD database file
#
# Track frame offsets:
#	150
#	22745
#	43190
#	66450
#	76557
#	104152
#	146315
#	168245
#	200942
#	240882
#
# Disc length: 3770 seconds
#
# Revision: 4
# Processed by: cddbd v1.5PL3 Copyright (c) Steve Scherf et al.
# Submitted via: CDex 1.51
#
DISCID=7f0eb80a
DTITLE=Gary Moore - Live At Monsters Of Rock
DYEAR=2003
DGENRE=Hard Rock
TTITLE0=Shapes Of Things (LIVE)
TTITLE1=Wishing Well (LIVE)
TTITLE2=Rectify (LIVE)
TTITLE3=Guitar Intro (LIVE)
TTITLE4=Stand Up (LIVE)
TTITLE5=Just Can't Let Go (LIVE)
TTITLE6=Walking By Myself (LIVE)
TTITLE7=Don't Believe A Word (LIVE)
TTITLE8=Out In The Fields (LIVE)
TTITLE9=Parisienne Walkways (LIVE)
EXTD=YEAR: 2003
EXTT0=
EXTT1=
EXTT2=
EXTT3=
EXTT4=
EXTT5=
EXTT6=
EXTT7=
EXTT8=
EXTT9=
PLAYORDER=
